<?xml version="1.0" standalone="no"?>
<!DOCTYPE svg PUBLIC "-//W3C//DTD SVG 20010904//EN"
 "http://www.w3.org/TR/2001/REC-SVG-20010904/DTD/svg10.dtd">
<svg version="1.0" xmlns="http://www.w3.org/2000/svg"
 width="1280.000000pt" height="1280.000000pt" viewBox="0 0 1280.000000 1280.000000"
 preserveAspectRatio="xMidYMid meet">
<metadata>
Created by potrace 1.16, written by Peter Selinger 2001-2019
</metadata>
<g transform="translate(0.000000,1280.000000) scale(0.100000,-0.100000)"
fill="#000000" stroke="none">
<path d="M3149 9934 c-15 -3 -34 -13 -43 -23 -22 -24 -87 -216 -125 -367 -59
-238 -66 -297 -66 -579 0 -295 13 -385 84 -603 l38 -115 -50 -56 c-252 -284
-448 -669 -525 -1031 -85 -396 -81 -944 9 -1435 75 -406 236 -822 432 -1115
161 -241 419 -479 691 -641 198 -118 467 -240 679 -310 192 -63 510 -130 777
-164 192 -25 180 -15 117 -88 -150 -173 -246 -380 -298 -644 l-22 -111 -77
-31 c-225 -89 -376 -115 -670 -116 -222 0 -226 0 -310 29 -295 99 -513 285
-707 603 -125 205 -250 343 -412 457 -179 125 -314 187 -462 211 -243 39 -419
-3 -419 -101 0 -62 115 -202 226 -275 21 -14 66 -41 98 -60 147 -84 372 -360
495 -607 23 -46 71 -154 107 -240 73 -175 95 -217 166 -313 142 -194 407 -367
662 -433 50 -13 163 -34 251 -47 140 -20 198 -23 460 -24 268 0 314 3 433 24
74 12 137 20 140 16 4 -4 7 -398 6 -876 l-1 -869 1572 0 1573 0 -4 1232 c-3
749 -9 1278 -15 1348 -32 350 -141 623 -333 837 -55 61 -62 55 89 73 262 32
598 101 795 165 323 104 667 277 904 454 343 256 576 565 739 981 158 403 232
796 252 1335 26 688 -161 1266 -561 1737 l-74 86 34 104 c138 413 125 878 -40
1377 -34 103 -63 176 -76 187 -18 17 -38 19 -177 19 -143 -1 -166 -3 -273 -32
-214 -58 -579 -210 -816 -341 -61 -34 -190 -111 -285 -171 l-172 -109 -115 29
c-282 71 -602 126 -915 156 -213 21 -816 23 -1015 5 -367 -35 -742 -98 -1005
-171 l-69 -20 -146 93 c-265 169 -408 243 -715 371 -342 142 -495 185 -680
190 -71 2 -142 1 -156 -1z"/>
</g>
</svg>
