<?xml version="1.0" standalone="no"?>
<!DOCTYPE svg PUBLIC "-//W3C//DTD SVG 20010904//EN"
 "http://www.w3.org/TR/2001/REC-SVG-20010904/DTD/svg10.dtd">
<svg version="1.0" xmlns="http://www.w3.org/2000/svg"
 width="1280.000000pt" height="1280.000000pt" viewBox="0 0 1280.000000 1280.000000"
 preserveAspectRatio="xMidYMid meet">
<metadata>
Created by potrace 1.16, written by Peter Selinger 2001-2019
</metadata>
<g transform="translate(0.000000,1280.000000) scale(0.100000,-0.100000)"
fill="#000000" stroke="none">
<path d="M3264 11460 c-35 -11 -109 -86 -124 -126 -19 -49 -12 -122 15 -162
14 -20 25 -45 25 -55 0 -10 8 -20 18 -24 23 -8 242 -225 242 -240 0 -7 12 -19
28 -27 33 -18 685 -672 701 -703 7 -13 17 -23 24 -23 15 0 212 -199 220 -222
4 -10 12 -18 19 -18 15 0 618 -601 618 -615 0 -6 -126 -136 -279 -289 -255
-255 -281 -278 -298 -266 -10 8 -430 424 -933 926 -503 502 -931 925 -950 941
-49 41 -119 59 -171 44 -49 -15 -109 -49 -109 -63 0 -5 -10 -23 -21 -40 -26
-36 -29 -115 -7 -168 12 -27 588 -620 914 -940 19 -19 221 -221 237 -237 7 -7
59 -60 117 -117 58 -58 112 -112 120 -121 8 -8 62 -62 120 -119 58 -57 113
-112 123 -123 10 -10 77 -75 148 -145 71 -70 129 -133 129 -140 0 -15 -530
-548 -545 -548 -5 0 -431 421 -945 935 -998 998 -984 986 -1079 984 -62 0
-134 -36 -171 -84 -27 -37 -29 -46 -30 -126 0 -67 4 -90 16 -100 8 -7 22 -26
31 -43 13 -27 266 -292 377 -395 21 -20 75 -74 120 -120 44 -46 108 -110 141
-142 33 -32 460 -459 950 -949 490 -490 917 -911 950 -934 33 -24 76 -60 94
-80 19 -20 43 -36 52 -36 10 0 20 -4 23 -8 8 -14 108 -58 186 -83 101 -31 281
-38 384 -15 75 18 111 29 163 52 17 8 34 14 38 14 11 0 97 61 144 102 24 21
53 38 65 38 15 0 712 -690 2301 -2277 1254 -1253 2305 -2298 2335 -2324 62
-51 163 -110 236 -136 61 -22 325 -26 346 -6 6 7 19 13 28 13 9 0 39 11 66 25
27 14 54 25 61 25 7 0 50 38 96 84 95 95 142 177 177 308 23 88 25 136 9 222
-24 132 -72 227 -171 338 -32 37 -1078 1086 -2324 2332 -1773 1773 -2264 2270
-2264 2289 0 14 17 43 41 71 85 96 134 222 160 404 11 79 10 107 -11 237 -19
122 -78 254 -160 361 -25 33 -486 502 -1025 1043 -539 541 -987 991 -996 1000
-9 9 -66 64 -125 123 -60 58 -121 119 -135 135 -14 15 -78 79 -142 142 -65 63
-117 119 -117 123 0 5 -15 15 -32 23 -18 7 -46 24 -62 36 -33 26 -127 36 -182
19z"/>
</g>
</svg>
