<?xml version="1.0" standalone="no"?>
<!DOCTYPE svg PUBLIC "-//W3C//DTD SVG 20010904//EN"
 "http://www.w3.org/TR/2001/REC-SVG-20010904/DTD/svg10.dtd">
<svg version="1.0" xmlns="http://www.w3.org/2000/svg"
 width="1280.000000pt" height="1280.000000pt" viewBox="0 0 1280.000000 1280.000000"
 preserveAspectRatio="xMidYMid meet">
<metadata>
Created by potrace 1.16, written by Peter Selinger 2001-2019
</metadata>
<g transform="translate(0.000000,1280.000000) scale(0.100000,-0.100000)"
fill="#000000" stroke="none">
<path d="M9950 12340 c-8 -5 -29 -10 -47 -10 -17 0 -34 -4 -38 -9 -3 -5 -20
-13 -37 -17 -18 -3 -39 -10 -48 -14 -8 -5 -32 -16 -53 -25 -57 -25 -195 -121
-250 -174 -26 -25 -76 -89 -112 -142 l-64 -95 -53 7 c-59 9 -165 32 -188 42
-8 3 -33 8 -55 11 -38 5 -58 8 -195 36 -30 6 -64 15 -75 20 -11 5 -38 11 -60
14 -38 5 -58 8 -195 36 -30 6 -64 15 -75 20 -11 5 -38 11 -60 14 -49 6 -119
20 -210 41 -72 17 -123 27 -210 44 -27 5 -81 17 -120 26 -66 15 -102 23 -212
44 -27 5 -79 17 -118 26 -38 9 -91 20 -117 26 -27 5 -72 14 -100 20 -83 16
-238 23 -251 10 -6 -6 -19 -11 -28 -11 -45 0 -128 -146 -129 -227 0 -17 -4
-35 -10 -38 -5 -3 -10 -22 -10 -42 0 -20 -4 -50 -9 -67 -17 -58 -41 -171 -41
-193 0 -12 -4 -25 -10 -28 -5 -3 -10 -22 -10 -42 0 -20 -4 -50 -9 -67 -17 -58
-41 -171 -41 -193 0 -12 -4 -25 -10 -28 -5 -3 -10 -22 -10 -42 0 -20 -4 -50
-9 -67 -17 -58 -34 -131 -38 -166 -2 -19 -8 -44 -13 -55 -5 -11 -11 -38 -14
-60 -7 -61 -23 -137 -35 -168 -6 -16 -11 -43 -11 -61 0 -17 -4 -36 -9 -42 -5
-5 -11 -29 -14 -54 -3 -25 -10 -65 -15 -90 -6 -25 -16 -72 -22 -105 -7 -33
-16 -69 -21 -80 -4 -11 -10 -38 -13 -60 -7 -61 -23 -137 -35 -168 -6 -16 -11
-43 -11 -61 0 -17 -4 -36 -9 -42 -5 -5 -11 -29 -14 -54 -3 -25 -10 -65 -15
-90 -6 -25 -16 -72 -22 -105 -7 -33 -16 -69 -21 -80 -4 -11 -10 -38 -13 -60
-2 -22 -9 -60 -14 -85 -6 -25 -15 -72 -22 -105 -7 -33 -16 -68 -21 -77 -5 -10
-9 -35 -9 -56 0 -21 -4 -42 -9 -48 -5 -5 -11 -27 -14 -49 -7 -60 -28 -158 -38
-177 -5 -10 -9 -25 -9 -33 0 -8 -8 -15 -17 -15 -195 -6 -685 -49 -833 -75
-125 -21 -215 -35 -270 -41 -25 -3 -54 -9 -65 -14 -24 -10 -124 -31 -180 -37
-22 -3 -44 -9 -49 -14 -6 -5 -26 -9 -46 -9 -20 0 -40 -3 -44 -7 -9 -9 -96 -33
-149 -40 -20 -3 -40 -9 -43 -14 -3 -5 -15 -9 -27 -9 -12 0 -53 -12 -92 -25
-38 -14 -80 -25 -92 -25 -12 0 -25 -4 -28 -10 -3 -5 -16 -10 -29 -10 -12 0
-26 -4 -32 -8 -5 -4 -36 -16 -69 -27 -33 -10 -64 -22 -70 -27 -5 -4 -19 -8
-32 -8 -13 0 -31 -4 -41 -10 -9 -5 -35 -16 -57 -25 -22 -9 -48 -21 -57 -26
-10 -5 -24 -9 -31 -9 -7 0 -37 -11 -65 -25 -29 -14 -56 -25 -62 -25 -6 0 -18
-4 -28 -9 -9 -5 -51 -25 -92 -44 -192 -89 -481 -236 -535 -273 -17 -11 -43
-26 -60 -34 -16 -8 -50 -29 -75 -46 -25 -17 -52 -34 -60 -37 -8 -3 -55 -35
-105 -70 l-90 -65 -35 29 c-58 49 -137 107 -172 128 -76 45 -238 121 -256 121
-12 0 -23 4 -26 9 -3 5 -20 11 -38 14 -39 7 -120 25 -168 38 -79 23 -474 1
-560 -30 -14 -5 -45 -14 -70 -21 -25 -7 -70 -23 -100 -37 -30 -14 -66 -30 -80
-36 -22 -10 -97 -53 -142 -82 -81 -52 -229 -184 -270 -241 -13 -17 -42 -57
-65 -87 -53 -69 -120 -187 -143 -252 -4 -11 -15 -37 -24 -58 -9 -21 -16 -46
-16 -57 0 -10 -4 -21 -9 -24 -5 -3 -11 -23 -14 -43 -3 -21 -15 -94 -26 -163
-25 -156 -25 -194 0 -350 11 -69 23 -142 26 -163 3 -20 9 -40 14 -43 5 -3 9
-14 9 -24 0 -11 7 -36 16 -57 9 -21 20 -47 24 -58 53 -147 199 -348 346 -476
56 -49 105 -89 109 -89 4 0 25 -13 48 -30 23 -16 67 -42 97 -57 51 -26 55 -30
51 -58 -2 -16 -4 -174 -4 -350 0 -319 5 -402 38 -540 9 -38 19 -87 22 -108 3
-20 9 -40 14 -43 5 -3 9 -15 9 -27 1 -24 33 -123 44 -134 3 -3 6 -17 6 -29 0
-13 5 -26 10 -29 6 -3 10 -15 10 -26 0 -10 4 -27 10 -37 5 -9 16 -35 25 -57
42 -101 166 -339 225 -430 35 -55 70 -110 77 -123 7 -13 22 -35 33 -50 12 -15
42 -54 68 -88 135 -176 408 -470 496 -535 22 -16 63 -51 92 -77 54 -49 161
-136 200 -162 12 -8 81 -57 152 -108 72 -50 133 -92 137 -92 3 0 21 -11 39
-25 18 -14 36 -25 41 -25 4 0 30 -16 56 -35 27 -19 54 -35 60 -35 6 0 25 -10
42 -22 56 -40 381 -204 542 -273 22 -10 58 -26 79 -36 22 -11 45 -19 51 -19 6
0 35 -11 63 -25 29 -14 58 -25 66 -25 8 0 18 -5 21 -10 3 -6 15 -10 26 -10 10
0 27 -4 37 -9 46 -23 95 -41 112 -41 10 0 22 -4 25 -10 3 -5 17 -10 30 -10 13
0 26 -4 29 -9 3 -5 18 -11 33 -14 30 -5 87 -24 115 -38 10 -5 31 -9 47 -9 17
0 32 -4 35 -9 3 -5 20 -11 38 -14 18 -3 58 -13 88 -22 30 -10 73 -21 95 -25
100 -21 132 -29 158 -39 16 -6 41 -11 57 -11 16 0 32 -4 35 -10 3 -5 25 -10
47 -10 23 0 55 -4 72 -9 83 -25 281 -56 509 -80 54 -6 107 -13 118 -16 121
-39 1458 -38 1579 0 21 7 159 22 285 31 39 3 74 10 80 15 5 5 27 9 50 9 22 0
56 5 75 10 19 6 62 15 95 21 198 33 319 59 373 80 13 5 36 9 52 9 16 0 31 4
34 9 3 5 20 11 38 14 45 7 119 28 140 38 10 5 27 9 38 9 11 0 28 4 38 9 9 5
44 17 77 26 33 10 68 21 77 26 10 5 25 9 33 9 8 0 23 4 33 9 9 4 33 14 52 20
96 34 129 46 178 68 29 12 57 23 62 23 6 0 18 4 28 9 9 5 28 13 42 19 14 6 51
22 82 36 31 14 60 26 65 26 7 0 55 22 197 91 35 18 71 36 121 62 11 6 47 25
80 42 33 17 79 43 102 58 24 15 45 27 48 27 3 0 31 16 61 35 30 19 56 35 59
35 2 0 33 20 68 45 36 25 69 45 74 45 5 0 20 11 33 25 13 14 28 25 33 25 5 0
21 9 35 21 15 12 61 46 103 77 129 97 151 114 254 204 170 147 380 367 531
555 45 57 174 241 174 249 0 4 12 22 26 41 50 66 234 432 234 467 0 7 3 16 7
19 9 9 53 134 60 170 3 15 9 30 14 33 5 3 9 18 9 35 0 16 4 37 9 47 10 20 30
97 43 167 41 222 50 539 26 865 -3 33 0 36 58 66 34 17 77 43 96 58 19 14 38
26 41 26 4 0 44 31 90 69 180 152 300 321 395 561 5 14 15 45 22 70 6 25 16
61 22 80 21 67 31 166 31 315 1 154 -8 235 -38 340 -10 33 -20 72 -22 88 -3
15 -9 30 -14 33 -5 3 -9 12 -9 19 0 14 -67 157 -93 200 -102 168 -245 319
-399 423 -61 41 -235 132 -254 132 -8 0 -22 4 -32 9 -9 5 -44 17 -77 26 -33
10 -69 21 -80 26 -75 30 -558 28 -589 -2 -6 -5 -19 -9 -30 -9 -22 0 -108 -26
-138 -41 -10 -5 -23 -9 -29 -9 -18 0 -197 -91 -210 -106 -6 -8 -17 -14 -23
-14 -10 0 -32 -16 -149 -111 -40 -33 -62 -33 -92 1 -10 11 -22 20 -27 20 -5 0
-38 20 -72 45 -35 25 -66 45 -70 45 -3 0 -28 16 -55 35 -26 19 -51 35 -55 35
-3 0 -25 12 -48 26 -103 65 -502 266 -623 314 -11 4 -38 15 -60 25 -114 47
-125 52 -178 71 -26 9 -50 21 -53 25 -3 5 -18 9 -33 9 -15 0 -31 4 -37 8 -5 5
-36 17 -69 27 -33 11 -64 23 -69 27 -6 4 -20 8 -32 8 -13 0 -26 5 -29 10 -3 6
-19 10 -35 10 -16 0 -31 4 -34 9 -3 5 -23 12 -43 16 -21 4 -42 10 -48 15 -5 4
-23 10 -40 13 -45 9 -104 24 -165 42 -30 9 -74 21 -97 26 -71 15 -124 27 -198
44 -68 16 -123 26 -235 45 -30 5 -95 16 -145 25 -151 27 -321 46 -628 69 -114
8 -212 18 -218 22 -13 8 -7 71 16 164 9 36 21 86 26 113 5 26 13 68 18 95 5
26 17 79 26 117 9 39 20 91 26 118 5 26 13 68 18 95 6 26 15 74 22 107 6 33
15 64 20 70 5 5 9 27 9 50 0 23 4 45 9 51 5 5 11 29 14 54 3 25 13 74 22 110
9 36 19 83 21 105 3 22 9 49 14 60 5 11 11 38 14 60 3 22 13 69 21 105 9 36
21 86 26 113 5 26 13 68 18 95 5 26 17 79 26 117 9 39 20 93 26 120 5 28 14
70 19 95 5 25 14 72 21 105 6 33 15 64 20 70 5 5 9 27 9 50 0 23 4 45 9 50 5
6 11 30 14 55 3 25 12 74 22 110 9 36 19 85 22 110 3 25 9 49 14 55 5 5 9 23
9 41 0 54 19 94 45 94 13 0 27 -4 30 -10 3 -5 21 -10 40 -10 19 0 46 -5 62
-11 15 -6 51 -15 78 -20 28 -6 70 -14 95 -19 25 -5 70 -13 100 -19 30 -5 68
-14 83 -20 16 -6 41 -11 56 -11 15 0 31 -4 37 -9 5 -5 29 -11 54 -14 25 -3 65
-10 90 -15 25 -6 72 -15 105 -22 33 -7 68 -16 77 -21 10 -5 36 -9 57 -9 22 0
43 -4 46 -10 3 -5 21 -10 40 -10 19 0 46 -5 62 -11 15 -6 51 -15 78 -20 28 -6
70 -14 95 -19 25 -5 71 -14 102 -20 31 -5 69 -15 83 -20 15 -6 39 -10 55 -10
16 0 32 -4 35 -10 3 -5 22 -10 42 -10 20 0 50 -4 67 -9 17 -5 67 -17 111 -26
44 -10 87 -21 95 -25 10 -4 18 -30 22 -71 13 -113 20 -154 29 -164 5 -5 9 -15
9 -22 0 -7 11 -36 25 -65 14 -28 25 -56 25 -60 0 -13 64 -107 117 -171 52 -63
175 -177 191 -177 5 0 15 -6 21 -13 6 -8 32 -24 58 -37 27 -12 70 -33 96 -46
27 -13 59 -24 72 -24 13 0 26 -4 29 -9 21 -33 501 -33 522 0 3 5 15 9 28 9 12
0 40 8 62 19 21 10 57 27 79 36 174 79 343 252 429 440 15 33 31 68 37 77 5
10 9 27 9 37 0 11 4 22 9 25 15 9 24 115 24 271 -1 157 -9 243 -24 259 -5 6
-9 18 -9 28 0 10 -11 41 -25 70 -14 28 -25 56 -25 60 0 5 -16 34 -35 64 -19
30 -35 59 -35 64 0 20 -217 226 -263 249 -26 13 -52 30 -58 38 -6 7 -18 13
-25 13 -8 0 -22 4 -32 9 -9 5 -35 17 -57 26 -22 9 -48 20 -57 25 -10 6 -33 10
-52 10 -19 0 -38 5 -41 10 -8 13 -375 13 -395 0z m-5425 -5430 c3 -5 18 -10
33 -10 28 0 95 -21 135 -42 45 -23 57 -28 68 -28 6 0 33 -16 59 -35 26 -19 52
-35 57 -35 17 0 200 -184 228 -228 66 -108 106 -187 120 -242 3 -14 15 -58 26
-99 26 -99 26 -253 0 -352 -11 -41 -23 -85 -26 -99 -10 -40 -45 -116 -89 -195
-20 -37 -104 -139 -148 -182 -85 -82 -143 -119 -320 -205 -10 -4 -28 -8 -41
-8 -13 0 -27 -4 -32 -9 -19 -16 -158 -41 -235 -41 -76 0 -208 22 -242 41 -10
5 -25 9 -33 9 -17 0 -15 -1 -138 61 -49 24 -95 52 -104 61 -9 10 -22 18 -28
18 -20 0 -197 191 -224 241 -60 111 -101 200 -101 221 0 8 -4 18 -9 23 -16 17
-23 96 -24 240 0 165 9 222 52 320 43 98 56 123 77 150 13 18 24 37 24 43 0
22 196 210 267 256 39 25 76 46 81 46 5 0 31 11 58 25 27 14 57 25 66 25 9 0
20 5 23 10 3 6 21 10 38 10 18 0 39 5 47 10 20 13 327 13 335 0z m4085 -5 c30
-4 59 -11 65 -16 5 -5 18 -9 28 -9 17 0 67 -19 109 -41 10 -5 23 -9 29 -9 7 0
56 -29 110 -65 148 -99 266 -235 335 -385 65 -142 77 -202 77 -375 0 -137 -9
-210 -33 -270 -7 -16 -16 -39 -20 -50 -57 -147 -146 -271 -270 -374 -66 -56
-168 -122 -210 -137 -8 -3 -23 -10 -32 -15 -10 -5 -25 -9 -33 -9 -8 0 -23 -4
-33 -10 -51 -28 -141 -42 -272 -42 -131 0 -221 14 -272 42 -10 6 -25 10 -33
10 -18 0 -32 7 -153 71 -99 53 -278 233 -323 324 -11 22 -29 58 -41 80 -11 22
-24 48 -29 57 -5 10 -9 26 -9 36 0 10 -4 22 -9 27 -30 31 -53 332 -31 410 50
179 48 171 79 234 54 111 117 196 202 276 52 49 141 115 154 115 3 0 21 11 39
25 18 14 38 25 45 25 6 0 19 4 29 9 60 30 161 61 204 61 18 0 40 5 48 10 15
10 141 7 250 -5z m-4142 -2984 c20 -11 55 -36 77 -57 77 -73 262 -204 288
-204 7 0 17 -4 23 -9 14 -13 104 -61 114 -61 6 0 33 -11 62 -25 28 -14 58 -25
65 -25 7 0 21 -4 31 -9 9 -5 42 -16 72 -26 30 -9 64 -20 75 -25 11 -5 34 -11
50 -15 66 -14 113 -24 175 -40 86 -22 186 -38 450 -71 114 -15 214 -19 470
-19 323 0 357 3 680 46 36 5 88 11 115 14 28 3 59 10 70 15 21 10 104 28 168
37 20 3 40 9 43 14 3 5 14 9 25 9 11 0 57 12 102 26 97 31 99 32 212 79 22 10
51 22 65 27 119 49 286 159 399 263 61 57 98 74 159 75 62 0 113 -23 157 -72
47 -52 55 -73 55 -147 0 -98 -23 -137 -138 -232 -67 -56 -196 -149 -257 -186
-27 -16 -262 -132 -305 -151 -19 -8 -43 -19 -52 -23 -10 -5 -27 -9 -37 -9 -11
0 -23 -4 -26 -10 -3 -5 -16 -10 -29 -10 -12 0 -26 -4 -31 -9 -14 -11 -109 -41
-134 -41 -11 0 -23 -4 -26 -10 -3 -5 -21 -10 -39 -10 -17 0 -36 -4 -42 -9 -14
-14 -120 -37 -271 -59 -33 -5 -65 -12 -71 -16 -11 -7 -142 -25 -272 -37 -269
-26 -756 -26 -1025 0 -126 12 -256 30 -275 38 -8 3 -40 10 -70 14 -78 11 -145
25 -220 44 -36 9 -80 19 -98 22 -18 3 -35 9 -38 14 -3 5 -15 9 -26 9 -23 0
-161 44 -190 60 -10 6 -25 10 -33 10 -8 0 -23 4 -33 9 -19 9 -75 33 -112 48
-59 24 -189 90 -238 120 -29 18 -55 33 -58 33 -11 0 -142 96 -214 158 -87 74
-139 138 -140 169 0 12 -4 25 -10 28 -5 3 -10 19 -10 35 0 16 5 32 10 35 6 3
10 17 10 29 0 29 71 111 119 136 48 25 130 26 179 1z"/>
</g>
</svg>
