<?xml version="1.0" standalone="no"?>
<!DOCTYPE svg PUBLIC "-//W3C//DTD SVG 20010904//EN"
 "http://www.w3.org/TR/2001/REC-SVG-20010904/DTD/svg10.dtd">
<svg version="1.0" xmlns="http://www.w3.org/2000/svg"
 width="1280.000000pt" height="1280.000000pt" viewBox="0 0 1280.000000 1280.000000"
 preserveAspectRatio="xMidYMid meet">
<metadata>
Created by potrace 1.16, written by Peter Selinger 2001-2019
</metadata>
<g transform="translate(0.000000,1280.000000) scale(0.100000,-0.100000)"
fill="#000000" stroke="none">
<path d="M8395 10853 c-896 -120 -1652 -805 -1880 -1703 -86 -338 -93 -715
-20 -1048 19 -88 35 -166 35 -173 0 -21 -609 -5 -805 20 -804 107 -1678 454
-2468 983 -607 407 -1122 921 -1354 1353 -44 82 -51 90 -78 90 -29 0 -33 -7
-106 -152 -74 -148 -147 -345 -189 -508 -45 -176 -62 -312 -67 -553 -6 -255 3
-380 43 -577 30 -149 43 -189 113 -345 226 -499 575 -913 969 -1149 l87 -52
-105 6 c-481 29 -726 93 -982 257 -49 31 -86 48 -100 46 -22 -3 -23 -6 -21
-103 6 -377 181 -895 431 -1276 175 -266 325 -432 522 -578 412 -306 718 -463
1015 -524 l70 -14 -35 -11 c-51 -16 -224 -58 -305 -73 -90 -17 -357 -17 -455
0 -41 7 -148 35 -237 62 -175 53 -210 58 -220 33 -13 -35 91 -309 189 -494
197 -373 492 -698 848 -933 178 -117 374 -200 621 -261 119 -30 342 -66 409
-66 l45 0 -169 -111 c-709 -463 -1145 -674 -1731 -838 -332 -92 -502 -126
-790 -156 -88 -10 -198 -22 -245 -29 -81 -10 -85 -12 -88 -37 -4 -30 42 -67
263 -212 688 -450 1534 -743 2440 -846 252 -29 375 -35 675 -35 338 0 512 12
805 55 1404 206 2713 948 3701 2100 933 1088 1527 2471 1698 3954 42 366 58
718 50 1125 l-7 315 103 69 c145 98 333 250 466 378 162 155 329 331 381 402
86 116 217 416 200 460 -11 29 -52 17 -238 -73 -368 -177 -599 -249 -863 -267
-144 -10 -148 -2 -31 59 122 63 207 123 306 216 144 134 242 275 369 532 92
186 112 260 108 399 -3 86 -5 95 -23 98 -11 1 -110 -43 -220 -99 -412 -211
-716 -343 -945 -412 -195 -60 -166 -66 -311 71 -385 362 -689 526 -1119 601
-247 44 -540 53 -755 24z"/>
</g>
</svg>
