<?xml version="1.0" standalone="no"?>
<!DOCTYPE svg PUBLIC "-//W3C//DTD SVG 20010904//EN"
 "http://www.w3.org/TR/2001/REC-SVG-20010904/DTD/svg10.dtd">
<svg version="1.0" xmlns="http://www.w3.org/2000/svg"
 width="1280.000000pt" height="1280.000000pt" viewBox="0 0 1280.000000 1280.000000"
 preserveAspectRatio="xMidYMid meet">
<metadata>
Created by potrace 1.16, written by Peter Selinger 2001-2019
</metadata>
<g transform="translate(0.000000,1280.000000) scale(0.050000,-0.050000)"
fill="#000000" stroke="none">
<path d="M6444 25300 c-36 -8 -70 -19 -74 -23 -5 -4 -407 -404 -894 -889 -487
-485 -904 -888 -926 -895 -22 -7 -112 7 -200 30 -390 102 -1197 59 -1580 -85
-55 -20 -131 -44 -170 -51 -38 -8 -97 -29 -130 -48 -33 -19 -82 -41 -110 -50
-27 -8 -74 -31 -103 -52 -29 -20 -67 -37 -84 -37 -16 0 -42 -12 -58 -27 -15
-15 -55 -42 -90 -60 -87 -45 -241 -151 -257 -175 -6 -12 -28 -27 -48 -34 -70
-27 -388 -323 -520 -484 -27 -33 -70 -79 -94 -103 -23 -23 -54 -68 -67 -99
-13 -32 -32 -58 -41 -58 -9 0 -32 -28 -50 -63 -18 -35 -41 -73 -51 -85 -37
-43 -128 -222 -268 -522 -79 -171 -129 -355 -210 -780 -26 -134 -26 -834 0
-960 88 -426 142 -626 213 -780 15 -33 41 -91 58 -130 38 -85 86 -180 111
-220 10 -16 38 -65 61 -108 23 -43 50 -88 60 -100 68 -82 138 -180 138 -193 0
-56 559 -607 678 -668 34 -18 62 -41 62 -51 0 -11 23 -25 51 -32 27 -7 59 -30
70 -50 11 -21 32 -38 47 -38 14 0 58 -22 97 -48 39 -26 92 -55 118 -63 26 -8
68 -31 95 -52 26 -20 61 -37 78 -37 16 0 76 -21 132 -47 191 -89 373 -139 772
-214 117 -22 823 -22 940 0 351 66 437 85 490 109 33 15 92 33 130 41 161 34
742 336 857 446 15 14 52 39 82 55 31 16 61 42 68 59 6 17 22 31 35 31 29 0
438 409 438 438 0 11 22 36 50 54 28 18 50 43 50 57 0 13 16 41 35 62 70 78
168 234 266 424 24 47 52 90 61 96 10 6 18 26 18 45 0 18 21 79 47 134 26 55
67 163 93 240 42 129 58 201 129 576 41 221 26 821 -27 1051 -24 103 -38 203
-33 221 12 38 185 222 208 222 9 0 28 23 43 50 15 28 39 50 53 50 15 0 27 8
27 18 0 23 740 762 763 762 9 0 17 12 17 27 0 14 23 38 50 53 28 15 50 33 50
40 0 8 134 148 297 312 492 495 549 368 -744 1661 -1144 1144 -1088 1099
-1309 1047z m170 -261 c130 -48 1946 -1901 1946 -1986 0 -101 -67 -184 -397
-499 -79 -74 -143 -145 -143 -158 0 -12 -5 -17 -12 -11 -6 6 -211 -189 -455
-434 -777 -782 -786 -793 -764 -989 35 -308 35 -1211 1 -1372 -263 -1233
-1143 -2102 -2430 -2401 -184 -43 -869 -64 -1062 -32 -1353 222 -2371 1155
-2627 2407 -50 250 -44 1136 10 1386 340 1571 2030 2658 3619 2329 324 -67
234 -131 1240 872 939 935 942 937 1074 888z"/>
<path d="M6410 24722 c-133 -78 -1250 -1201 -1308 -1316 -97 -194 -16 -334
320 -556 443 -291 837 -692 1003 -1020 101 -197 287 -328 411 -289 95 31 1209
1129 1326 1307 166 253 140 296 -729 1164 -815 814 -828 823 -1023 710z m909
-903 c408 -407 741 -756 741 -774 0 -18 -281 -314 -624 -659 -663 -664 -715
-705 -748 -576 -7 28 -19 50 -28 50 -8 0 -25 25 -38 55 -13 30 -55 100 -93
155 -39 55 -85 123 -104 150 -225 335 -779 815 -1110 964 -88 40 -74 111 45
220 55 51 100 101 100 112 0 12 9 24 20 27 30 11 460 439 460 459 0 10 9 18
20 18 10 0 116 100 235 223 118 123 227 233 241 245 14 12 37 33 50 46 54 55
121 -2 833 -715z"/>
<path d="M3450 23208 c-1333 -200 -2314 -1094 -2610 -2380 -97 -423 -40 -1189
120 -1597 826 -2113 3378 -2660 4889 -1047 348 371 681 981 740 1356 8 50 27
134 43 189 53 186 39 863 -24 1124 -233 968 -879 1756 -1728 2107 -82 34 -168
70 -190 81 -256 118 -943 211 -1240 167z m750 -275 c50 -17 147 -40 217 -51
70 -11 149 -34 175 -51 25 -17 63 -31 83 -31 33 0 96 -26 285 -118 151 -73
428 -253 509 -331 24 -23 94 -86 157 -140 63 -55 114 -111 114 -125 0 -14 8
-26 17 -26 9 0 66 -63 125 -141 59 -77 128 -166 152 -196 24 -31 49 -79 57
-108 7 -29 30 -68 51 -87 21 -19 38 -45 38 -58 0 -13 21 -64 48 -114 26 -49
54 -118 61 -152 8 -34 31 -98 52 -142 22 -44 39 -101 39 -127 0 -26 20 -119
44 -206 64 -234 64 -771 0 -990 -24 -83 -44 -171 -44 -195 0 -112 -228 -621
-363 -812 -32 -45 -80 -114 -106 -153 -61 -94 -463 -496 -518 -520 -24 -11
-83 -50 -133 -89 -49 -38 -117 -83 -150 -99 -33 -17 -73 -39 -90 -49 -73 -47
-277 -138 -340 -152 -38 -8 -88 -27 -110 -42 -22 -14 -101 -35 -174 -47 -74
-12 -158 -30 -187 -41 -162 -62 -796 -62 -958 0 -28 10 -104 28 -169 38 -65
11 -159 38 -209 61 -50 22 -101 41 -113 41 -64 0 -562 271 -642 349 -17 17
-36 31 -42 31 -10 0 -149 120 -265 230 -134 127 -399 475 -453 595 -13 30 -32
55 -41 55 -9 0 -17 9 -17 20 0 11 -26 76 -59 145 -32 69 -65 152 -72 185 -8
33 -23 71 -34 85 -11 14 -37 100 -57 190 -19 91 -46 209 -59 262 -30 125 -19
854 13 895 13 15 34 91 48 168 14 77 42 178 63 224 20 46 37 94 37 107 0 13
17 56 37 96 21 40 55 108 75 151 68 140 112 222 127 232 8 6 26 31 40 57 24
46 46 74 133 172 27 29 48 59 48 67 0 17 280 292 371 364 140 112 236 177 384
260 96 53 321 159 365 170 28 7 86 29 130 49 44 19 129 42 188 49 60 8 125 23
145 34 118 63 805 71 977 11z"/>
<path d="M2420 21906 c0 -9 32 -169 71 -356 40 -187 89 -430 110 -540 57 -293
55 -290 199 -290 83 0 120 -8 120 -25 0 -22 -64 -409 -88 -535 -10 -52 -80
-466 -112 -660 -36 -225 -79 -442 -89 -459 -25 -39 2238 -60 2275 -21 5 6 -2
69 -17 140 -15 72 -42 220 -59 330 -17 110 -40 245 -51 300 -11 55 -32 181
-48 280 -32 199 -58 344 -90 508 -11 59 -21 115 -21 125 0 9 49 17 108 17
l108 0 23 105 c13 58 36 159 51 225 16 66 43 201 60 300 18 99 45 230 60 290
15 61 33 149 40 196 l14 85 -257 -5 -256 -6 -14 -80 c-8 -44 -25 -145 -38
-225 l-23 -145 -248 0 -248 0 0 230 0 230 -250 0 -250 0 0 -230 0 -230 -238 0
-238 0 -34 195 c-18 107 -35 209 -37 225 -4 33 -533 58 -533 26z m1360 -324
c0 -215 188 -362 464 -362 263 0 327 35 444 240 l52 90 0 -132 c0 -240 -63
-426 -189 -559 -161 -169 -162 -124 12 -1088 31 -176 57 -367 57 -425 l0 -106
-851 0 c-732 0 -852 4 -862 30 -6 16 27 248 73 515 161 933 155 874 98 974
-27 48 -89 111 -151 152 -125 83 -168 219 -166 523 l1 176 40 -103 c25 -67 74
-135 138 -195 l98 -92 221 0 221 0 81 74 c99 89 159 200 159 295 0 50 9 71 30
71 22 0 30 -22 30 -78z"/>
<path d="M2280 18765 c-94 -17 -100 -35 -100 -287 l0 -238 1595 0 1595 0 -5
233 c-6 346 191 307 -1553 304 -815 -1 -1504 -7 -1532 -12z m2840 -265 c0 -13
-467 -20 -1360 -20 -893 0 -1360 7 -1360 20 0 13 467 20 1360 20 893 0 1360
-7 1360 -20z"/>
</g>
</svg>
