<svg xmlns="http://www.w3.org/2000/svg" version="1.0" viewBox="0 0 1280.000000 1280.000000" preserveAspectRatio="xMidYMid meet">
<metadata>
Created by potrace 1.16, written by Peter Selinger 2001-2019
</metadata>
<g transform="translate(0.000000,1280.000000) scale(0.100000,-0.100000)" fill="#000000" stroke="none">
<path d="M1105 11703 c-154 -21 -267 -60 -394 -136 -76 -46 -197 -153 -259 -230 -41 -51 -117 -192 -136 -253 -10 -32 -22 -69 -27 -82 -29 -75 -30 -304 -27 -4527 l3 -4320 22 -70 c40 -129 102 -264 125 -273 4 -2 8 -8 8 -14 0 -25 137 -176 195 -216 22 -15 42 -29 45 -32 10 -12 109 -69 152 -88 66 -30 128 -49 214 -67 72 -14 583 -15 5419 -12 5002 3 5343 4 5395 20 167 52 298 123 408 222 120 108 232 294 278 460 19 68 19 165 19 4460 0 4226 -1 4392 -18 4450 -74 243 -177 394 -361 529 -104 77 -216 128 -371 167 -40 11 -1070 14 -5355 15 -2918 0 -5318 -1 -5335 -3z m2990 -2694 c420 -48 807 -227 1110 -511 75 -71 79 -77 64 -94 -9 -11 -114 -138 -234 -284 -120 -146 -224 -271 -231 -279 -10 -12 -25 -3 -91 53 -195 169 -388 263 -617 302 -136 23 -403 15 -526 -16 -572 -143 -922 -615 -991 -1340 -14 -146 -6 -413 16 -582 74 -558 317 -938 718 -1123 183 -84 362 -119 617 -118 168 0 194 2 284 26 105 28 207 71 269 114 l37 26 0 453 0 454 -412 2 -413 3 0 380 0 380 825 0 825 0 3 -1052 2 -1052 -72 -61 c-308 -261 -723 -429 -1180 -479 -140 -16 -412 -13 -568 5 -495 56 -929 257 -1258 582 -386 382 -603 899 -652 1557 -32 443 26 887 166 1261 291 778 958 1300 1779 1392 114 13 424 14 530 1z m2990 -2399 l0 -2325 -465 0 -465 0 -3 2315 c-1 1273 0 2321 3 2328 3 10 102 12 467 10 l463 -3 0 -2325z m3810 1935 l0 -390 -962 -3 -963 -2 0 -595 0 -595 823 -2 822 -3 0 -390 0 -390 -822 -3 -823 -2 -2 -943 -3 -942 -465 0 -465 0 -3 2315 c-1 1273 0 2321 3 2328 3 10 295 12 1432 10 l1428 -3 0 -390z"/>
</g>
</svg>