<?xml version="1.0" standalone="no"?>
<!DOCTYPE svg PUBLIC "-//W3C//DTD SVG 20010904//EN"
 "http://www.w3.org/TR/2001/REC-SVG-20010904/DTD/svg10.dtd">
<svg version="1.0" xmlns="http://www.w3.org/2000/svg"
 width="1280.000000pt" height="1280.000000pt" viewBox="0 0 1280.000000 1280.000000"
 preserveAspectRatio="xMidYMid meet">
<metadata>
Created by potrace 1.16, written by Peter Selinger 2001-2019
</metadata>
<g transform="translate(0.000000,1280.000000) scale(0.100000,-0.100000)"
fill="#000000" stroke="none">
<path d="M4960 10881 c0 -11 -54 -31 -83 -31 -11 0 -30 -11 -43 -25 -13 -14
-37 -28 -53 -31 -17 -4 -33 -15 -36 -25 -4 -10 -17 -22 -29 -25 -13 -3 -28
-16 -35 -30 -6 -13 -17 -24 -25 -24 -7 0 -21 -11 -30 -25 -9 -14 -23 -25 -31
-25 -7 0 -17 -9 -20 -21 -4 -11 -17 -25 -30 -31 -13 -6 -26 -19 -28 -30 -3
-11 -14 -22 -25 -25 -11 -2 -25 -16 -31 -29 -6 -13 -17 -24 -25 -24 -8 0 -19
-13 -25 -30 -5 -16 -17 -30 -26 -30 -8 0 -20 -12 -25 -26 -6 -14 -19 -28 -30
-31 -11 -3 -20 -14 -20 -24 0 -11 -11 -24 -25 -31 -14 -6 -25 -16 -25 -22 0
-6 -16 -29 -35 -51 -19 -22 -35 -46 -35 -53 0 -7 -11 -18 -25 -24 -13 -6 -27
-19 -30 -29 -3 -9 -13 -20 -21 -23 -8 -3 -219 -9 -467 -12 -354 -6 -457 -10
-473 -21 -27 -17 -145 -32 -255 -33 -72 0 -91 -3 -113 -21 -18 -14 -52 -24
-102 -30 -50 -7 -86 -17 -104 -31 -17 -12 -50 -23 -80 -26 -37 -3 -59 -12 -75
-28 -13 -13 -35 -24 -48 -24 -35 0 -85 -19 -91 -35 -3 -8 -27 -17 -56 -21 -32
-4 -50 -11 -50 -20 0 -16 -31 -34 -60 -34 -11 0 -31 -11 -44 -25 -13 -14 -39
-27 -63 -31 -28 -4 -43 -12 -46 -25 -3 -10 -17 -21 -32 -25 -15 -4 -37 -17
-50 -30 -13 -13 -33 -24 -43 -24 -10 0 -33 -13 -50 -30 -18 -16 -40 -30 -50
-30 -10 0 -29 -11 -42 -25 -13 -14 -31 -25 -40 -25 -9 0 -22 -11 -28 -24 -6
-14 -23 -27 -40 -31 -16 -3 -40 -17 -52 -31 -13 -13 -32 -24 -42 -24 -11 0
-23 -11 -28 -25 -5 -14 -16 -25 -23 -25 -7 0 -29 -13 -47 -30 -18 -16 -44 -30
-56 -30 -15 0 -24 -8 -28 -25 -4 -15 -13 -25 -25 -25 -10 0 -26 -11 -35 -25
-9 -14 -23 -25 -31 -25 -8 0 -22 -11 -31 -25 -9 -14 -27 -28 -39 -31 -13 -3
-35 -19 -49 -35 -14 -16 -32 -29 -39 -29 -8 0 -19 -11 -25 -25 -7 -14 -20 -25
-31 -25 -13 0 -21 -8 -23 -22 -2 -14 -11 -24 -23 -26 -12 -2 -26 -15 -32 -32
-6 -17 -19 -30 -27 -30 -9 0 -21 -11 -26 -25 -6 -15 -17 -25 -30 -25 -14 0
-20 -7 -20 -21 0 -12 -14 -37 -30 -56 -17 -18 -30 -40 -30 -49 0 -8 -11 -19
-24 -26 -16 -6 -26 -21 -28 -37 -2 -18 -10 -27 -25 -29 -17 -3 -23 -10 -23
-30 0 -44 -11 -70 -30 -75 -12 -3 -19 -19 -24 -51 -6 -36 -13 -50 -31 -58 -21
-9 -23 -18 -27 -95 -3 -73 -6 -87 -26 -103 -21 -17 -22 -26 -22 -139 l0 -121
43 0 c42 0 107 -30 107 -49 0 -6 26 -11 57 -13 50 -3 58 -6 61 -24 3 -19 11
-22 69 -26 51 -3 69 -9 82 -25 10 -12 37 -24 66 -29 41 -7 51 -13 53 -32 3
-18 10 -22 41 -22 30 0 44 -7 72 -36 18 -20 46 -42 61 -50 24 -12 28 -21 28
-55 0 -32 -4 -42 -19 -46 -11 -3 -21 -15 -23 -27 -2 -11 -13 -25 -25 -31 -13
-5 -23 -13 -23 -17 0 -14 -32 -38 -50 -38 -11 0 -31 -11 -46 -25 -19 -18 -38
-25 -65 -25 -28 0 -44 -7 -61 -25 -18 -19 -37 -26 -87 -31 -47 -5 -69 -13 -87
-31 -19 -19 -33 -23 -84 -23 -46 0 -60 -3 -60 -15 0 -7 6 -18 14 -22 7 -4 18
-18 25 -30 6 -13 18 -23 27 -23 8 0 19 -11 26 -24 6 -14 20 -26 32 -28 11 -2
25 -13 31 -26 5 -12 18 -25 27 -28 10 -3 21 -16 24 -30 4 -15 13 -24 25 -24
11 0 24 -11 31 -25 6 -14 19 -25 29 -25 10 0 34 -14 52 -30 19 -17 42 -30 51
-30 8 0 23 -11 31 -24 10 -15 29 -26 55 -30 27 -4 41 -12 45 -26 4 -12 15 -20
28 -20 12 0 40 -14 61 -30 22 -17 46 -30 54 -30 8 0 30 -11 48 -25 18 -14 43
-25 55 -25 12 0 37 -11 55 -25 18 -14 40 -25 49 -25 21 0 68 -25 84 -44 9 -10
30 -16 57 -16 37 0 46 -4 55 -24 6 -13 19 -27 28 -30 9 -3 36 -17 61 -31 25
-14 60 -25 79 -25 20 0 47 -9 65 -23 18 -14 51 -26 79 -29 28 -3 57 -14 70
-26 15 -13 43 -22 90 -27 49 -5 75 -13 95 -30 23 -19 41 -23 123 -27 73 -3
103 -8 127 -24 l32 -20 -31 -23 c-19 -14 -51 -25 -85 -28 -37 -4 -58 -11 -64
-23 -5 -9 -31 -23 -57 -30 -26 -7 -60 -22 -75 -32 -14 -10 -41 -21 -60 -24
-18 -4 -42 -15 -53 -25 -12 -10 -36 -24 -55 -30 -19 -7 -48 -23 -63 -36 -16
-12 -35 -23 -43 -23 -9 0 -30 -11 -48 -25 -18 -14 -41 -25 -51 -25 -9 0 -26
-11 -36 -24 -11 -14 -30 -28 -42 -32 -12 -4 -35 -17 -50 -30 -16 -13 -38 -24
-49 -24 -11 0 -22 -8 -25 -19 -3 -11 -21 -24 -44 -31 -22 -8 -44 -21 -50 -31
-5 -10 -19 -21 -31 -25 -13 -4 -32 -15 -43 -26 -28 -27 -84 -66 -118 -80 -15
-7 -29 -20 -32 -29 -3 -10 -19 -22 -35 -28 -17 -5 -30 -14 -30 -20 0 -5 -19
-18 -42 -30 -24 -11 -49 -30 -56 -41 -7 -11 -21 -20 -31 -20 -10 0 -21 -9 -24
-20 -3 -11 -13 -23 -24 -27 -24 -9 -53 -36 -190 -173 -144 -145 -159 -161
-167 -183 -3 -11 -15 -21 -26 -24 -13 -3 -20 -14 -20 -29 0 -13 -14 -37 -30
-54 -17 -17 -30 -38 -30 -46 0 -9 -11 -29 -25 -46 -14 -16 -25 -40 -25 -53 0
-13 -11 -36 -24 -52 -15 -18 -26 -48 -30 -83 -4 -30 -17 -71 -28 -90 -19 -30
-22 -55 -26 -185 l-4 -151 27 -32 c23 -27 34 -32 70 -32 41 0 75 -18 75 -41 0
-5 18 -9 39 -9 48 0 84 -13 111 -40 12 -12 33 -20 54 -20 33 0 66 -21 66 -41
0 -5 18 -9 39 -9 37 0 71 -19 71 -40 0 -4 18 -11 41 -15 29 -5 43 -14 51 -31
6 -13 19 -24 28 -24 23 0 40 -20 40 -46 0 -13 10 -30 22 -38 12 -9 18 -16 13
-16 -6 0 -15 -10 -20 -22 -6 -12 -26 -27 -45 -33 -19 -6 -39 -21 -45 -33 -8
-18 -18 -22 -56 -22 -38 0 -50 -4 -62 -24 -13 -19 -27 -24 -71 -28 -39 -3 -63
-11 -79 -26 -16 -15 -41 -23 -92 -28 -39 -3 -74 -12 -80 -19 -5 -6 -20 -17
-32 -24 -13 -6 -23 -16 -23 -22 0 -13 66 -79 80 -79 6 0 15 -11 21 -24 6 -13
20 -27 31 -29 11 -3 22 -14 24 -24 3 -11 19 -24 35 -30 16 -6 29 -19 29 -27 0
-10 12 -19 30 -22 16 -4 40 -17 52 -29 13 -12 32 -24 43 -26 11 -2 24 -14 30
-26 6 -15 22 -24 48 -28 24 -5 43 -15 54 -31 8 -13 25 -24 37 -24 12 0 33 -11
48 -25 15 -14 36 -25 47 -25 20 0 51 -24 51 -40 0 -4 21 -12 47 -16 39 -7 49
-13 51 -32 3 -19 9 -22 52 -22 40 0 50 -4 64 -25 13 -20 25 -25 55 -25 35 0
39 -3 45 -30 5 -27 9 -30 42 -30 34 0 94 -26 94 -41 0 -4 21 -10 46 -14 29 -4
55 -15 68 -29 14 -16 37 -25 70 -28 32 -4 55 -13 65 -26 12 -14 33 -21 76 -25
42 -4 65 -12 75 -25 13 -15 34 -20 115 -25 94 -5 101 -7 124 -34 l24 -28 495
2 c483 1 494 2 513 22 19 20 38 25 140 36 75 8 109 -1 109 -29 0 -12 9 -27 20
-34 12 -7 22 -28 26 -53 4 -22 15 -48 24 -57 23 -23 40 -56 40 -80 0 -11 9
-22 20 -25 11 -3 23 -13 27 -24 3 -10 19 -34 35 -53 15 -19 28 -40 28 -47 0
-7 11 -20 25 -29 14 -9 25 -23 25 -30 0 -8 11 -20 25 -26 14 -6 28 -22 31 -34
4 -13 15 -24 27 -26 14 -2 23 -11 25 -26 2 -14 10 -22 22 -22 11 0 24 -9 30
-20 6 -11 29 -29 51 -40 22 -12 42 -27 46 -35 3 -8 16 -15 29 -15 16 0 28 -8
36 -24 7 -18 22 -27 50 -31 25 -5 44 -15 55 -31 11 -18 24 -24 52 -24 25 0 45
-8 63 -25 21 -19 38 -25 75 -25 50 0 106 -13 158 -35 33 -14 269 -35 485 -42
86 -3 193 1 294 11 88 9 208 16 267 16 106 0 119 3 208 44 22 10 23 14 17 71
-4 33 -9 109 -13 169 -5 92 -10 116 -30 144 -30 45 -29 82 2 112 l24 23 153
-13 c155 -13 440 -4 613 20 39 5 162 12 275 16 113 4 210 11 216 16 20 15 146
38 214 38 67 0 106 8 176 34 23 8 88 18 145 21 72 5 117 13 147 27 27 13 72
22 125 25 57 3 97 12 132 28 35 16 77 25 140 29 49 4 92 10 95 15 13 20 56 32
132 38 65 5 86 11 98 26 12 15 36 21 99 27 66 7 89 14 108 32 21 19 37 23 126
26 88 4 106 8 133 28 24 19 43 24 89 24 46 0 67 5 94 25 24 16 57 27 96 31 39
4 68 14 82 27 16 14 41 22 80 25 39 3 64 11 76 23 18 20 35 25 103 32 23 3 55
14 71 26 16 12 52 24 81 28 41 4 52 10 52 24 0 24 6 27 86 35 52 6 72 12 85
28 16 20 26 21 226 21 192 0 211 -2 238 -20 19 -12 60 -24 110 -30 67 -8 82
-14 89 -31 7 -16 22 -24 56 -28 26 -3 62 -17 80 -31 24 -18 47 -25 77 -25 33
0 50 -6 69 -25 20 -20 35 -25 74 -25 38 0 55 -5 75 -24 18 -16 42 -25 84 -30
44 -5 63 -12 79 -31 18 -20 31 -25 73 -25 55 0 89 -13 89 -34 0 -10 19 -15 66
-18 52 -3 70 -9 83 -24 12 -16 33 -22 85 -27 69 -7 96 -18 96 -43 0 -11 18
-14 75 -14 74 0 135 -18 135 -40 0 -6 42 -10 103 -10 85 1 106 4 125 19 32 27
31 90 -2 118 -18 16 -26 36 -32 80 -5 42 -13 64 -30 80 -17 16 -24 33 -24 60
0 26 -6 44 -19 55 -11 9 -25 36 -32 60 -7 24 -18 48 -25 53 -28 24 -36 91 -32
286 3 192 3 196 29 235 20 28 28 56 32 104 4 49 10 69 26 81 20 16 21 27 21
167 0 148 0 151 -26 182 -25 29 -25 32 -9 44 25 18 17 121 -12 162 -14 19 -23
53 -28 99 -4 39 -16 90 -28 114 -30 65 -30 205 0 247 12 17 25 49 29 72 4 24
16 50 30 63 13 12 24 33 24 45 0 12 11 35 24 51 13 15 27 47 30 70 4 22 16 49
26 58 12 11 21 37 25 74 8 71 24 123 42 136 20 15 21 683 2 697 -21 14 -242 0
-254 -16 -14 -18 -71 -36 -114 -36 -24 0 -42 -7 -53 -20 -17 -19 -28 -23 -101
-35 -21 -3 -40 -12 -43 -20 -6 -16 -56 -35 -91 -35 -14 0 -38 -10 -55 -21 -16
-12 -51 -24 -76 -27 -30 -3 -53 -11 -62 -23 -10 -12 -39 -24 -80 -31 -40 -8
-71 -20 -80 -31 -9 -10 -34 -21 -59 -24 -25 -3 -60 -17 -79 -30 -23 -15 -49
-23 -78 -23 -30 0 -47 -5 -56 -18 -15 -22 -69 -42 -109 -42 -15 0 -45 -11 -65
-25 -26 -17 -50 -25 -81 -25 -33 0 -53 -7 -73 -23 -21 -18 -45 -26 -95 -30
-38 -4 -75 -13 -84 -20 -32 -28 -86 -37 -213 -37 -131 0 -210 12 -238 36 -9 7
-53 16 -99 20 -61 5 -91 13 -115 29 -22 15 -53 24 -95 27 -42 3 -70 11 -91 26
-16 12 -43 22 -59 22 -37 0 -81 16 -95 35 -6 8 -40 19 -76 24 -43 7 -70 17
-80 30 -11 13 -31 20 -72 23 -33 3 -68 13 -85 24 -15 10 -61 24 -102 31 -44 7
-86 20 -102 32 -20 15 -43 21 -77 21 -53 0 -108 15 -133 36 -8 8 -34 14 -57
14 -60 0 -144 20 -166 39 -13 11 -46 18 -116 22 -73 4 -106 11 -127 25 -22 15
-52 20 -135 24 -97 5 -112 8 -172 40 -36 19 -69 43 -72 53 -3 9 -14 17 -25 17
-10 0 -19 5 -19 10 0 6 10 10 22 10 12 0 29 7 37 14 9 8 66 22 126 31 61 9
126 23 145 32 19 9 80 21 135 26 62 6 106 15 117 25 10 8 58 20 110 26 51 7
105 20 119 29 14 9 63 22 110 28 46 6 91 18 100 26 9 7 48 18 85 24 38 5 87
18 109 29 22 10 70 24 107 30 52 9 75 19 107 47 45 38 49 48 24 75 -15 17 -15
18 3 18 11 0 24 -4 30 -9 5 -6 47 -4 109 5 141 22 145 23 145 38 0 16 43 26
111 26 38 0 49 4 54 19 7 23 33 31 99 31 38 0 53 5 70 23 17 18 38 26 85 31
40 5 74 15 92 28 51 38 280 37 318 -1 12 -12 46 -21 106 -28 68 -8 93 -16 105
-31 12 -15 32 -20 84 -24 54 -3 71 -8 84 -25 13 -16 32 -22 80 -26 46 -4 70
-11 86 -26 12 -12 30 -21 39 -21 9 0 19 -5 23 -11 11 -18 84 -46 139 -54 52
-7 80 -19 103 -42 7 -7 26 -13 41 -13 39 0 88 -19 95 -36 3 -9 20 -14 46 -14
43 0 110 -23 110 -38 0 -5 28 -12 62 -16 42 -4 74 -14 98 -31 28 -19 49 -25
92 -25 42 0 64 -6 92 -25 35 -24 44 -25 171 -25 l133 0 12 36 c10 30 10 37 -4
47 -11 8 -20 38 -27 81 -7 50 -15 73 -29 83 -13 9 -22 31 -26 63 -4 30 -12 50
-19 50 -16 0 -45 71 -45 111 0 20 -8 37 -22 49 -22 17 -23 25 -26 234 -5 238
-1 277 30 308 14 14 23 41 29 90 5 39 18 85 29 103 29 47 29 213 0 253 -12 17
-24 58 -31 109 -10 69 -15 83 -35 94 -22 11 -24 19 -24 90 0 69 -3 81 -25 105
-25 26 -25 30 -25 189 0 159 0 162 25 185 16 15 25 34 25 55 0 20 11 43 30 65
16 19 29 45 30 57 0 12 11 30 23 40 17 13 25 32 29 68 4 33 13 55 27 66 15 12
22 33 27 85 7 70 26 124 44 124 6 0 10 117 10 315 l0 315 -26 10 c-44 17 -89
12 -117 -14 -20 -18 -43 -26 -94 -32 -50 -5 -71 -12 -84 -27 -12 -15 -31 -22
-78 -25 -33 -2 -61 -8 -61 -12 0 -20 -34 -40 -68 -40 -22 0 -50 -10 -74 -26
-22 -16 -57 -29 -85 -32 -30 -3 -53 -12 -63 -25 -11 -13 -35 -22 -73 -28 -40
-5 -63 -14 -75 -28 -12 -15 -33 -23 -69 -28 -29 -3 -53 -10 -53 -14 0 -17 -60
-39 -105 -39 -25 0 -45 -4 -45 -9 0 -22 -33 -39 -87 -46 -41 -5 -63 -13 -74
-27 -12 -16 -31 -22 -75 -26 -44 -3 -64 -10 -80 -27 -17 -17 -38 -23 -89 -28
-50 -5 -70 -11 -83 -27 -14 -17 -33 -22 -97 -27 -59 -5 -88 -12 -108 -27 -24
-18 -43 -21 -123 -21 -85 0 -97 2 -112 21 -15 19 -30 22 -119 26 -91 4 -107 8
-141 31 -32 23 -49 27 -104 27 -55 0 -69 4 -91 24 -19 18 -40 25 -86 28 -44 3
-67 10 -83 25 -13 12 -44 24 -73 28 -28 4 -60 16 -73 28 -15 14 -43 23 -84 28
-43 5 -66 13 -77 27 -12 14 -34 21 -80 26 -47 4 -71 12 -88 28 -17 16 -39 23
-86 26 -72 4 -117 19 -117 38 0 10 -16 14 -62 14 -78 1 -136 13 -151 34 -9 11
-41 18 -110 24 -78 7 -102 14 -117 29 -15 17 -35 21 -135 25 -95 4 -122 9
-143 25 -19 14 -49 22 -102 25 -65 5 -77 9 -95 32 -11 14 -31 26 -43 26 -13 0
-34 11 -47 24 -13 13 -35 26 -50 30 -15 4 -29 16 -32 26 -3 11 -12 20 -19 20
-17 0 -94 71 -94 86 0 7 -11 19 -25 28 -14 9 -25 25 -25 35 0 10 -9 21 -20 24
-11 3 -24 17 -29 31 -12 29 -104 126 -120 126 -7 0 -23 11 -36 25 -14 13 -41
27 -61 31 -19 3 -45 17 -57 29 -15 15 -38 24 -70 28 -29 3 -57 13 -70 25 -13
11 -44 23 -74 27 -30 4 -65 17 -84 31 -23 16 -46 24 -75 24 -30 0 -51 7 -71
24 -20 17 -45 25 -92 29 -42 3 -74 12 -91 26 -18 13 -55 24 -105 30 -52 6 -84
16 -98 29 -16 14 -41 21 -96 25 -61 4 -78 9 -92 26 -13 16 -29 21 -66 22 -78
1 -145 15 -159 34 -9 13 -35 19 -104 24 -72 6 -95 12 -113 29 -19 18 -36 22
-88 22 -84 1 -150 14 -164 33 -8 12 -39 18 -114 23 -82 6 -109 11 -135 29 -27
19 -51 23 -147 27 -78 4 -125 10 -146 22 -34 17 -103 22 -103 7z"/>
</g>
</svg>
