<?xml version="1.0" standalone="no"?>
<!DOCTYPE svg PUBLIC "-//W3C//DTD SVG 20010904//EN"
 "http://www.w3.org/TR/2001/REC-SVG-20010904/DTD/svg10.dtd">
<svg version="1.0" xmlns="http://www.w3.org/2000/svg"
 width="1280.000000pt" height="1280.000000pt" viewBox="0 0 1280.000000 1280.000000"
 preserveAspectRatio="xMidYMid meet">
<metadata>
Created by potrace 1.16, written by Peter Selinger 2001-2019
</metadata>
<g transform="translate(0.000000,1280.000000) scale(0.100000,-0.100000)"
fill="#000000" stroke="none">
<path d="M1315 10900 c-168 -19 -394 -104 -545 -205 -124 -82 -277 -239 -362
-371 -48 -74 -106 -198 -137 -294 -65 -198 -61 67 -59 -4015 l3 -3710 21 -70
c46 -154 111 -264 217 -373 84 -85 162 -138 274 -187 154 -66 126 -65 1275
-65 l1038 0 2 2379 3 2380 91 -67 c51 -37 139 -103 197 -147 58 -44 116 -88
129 -97 80 -59 545 -408 553 -415 13 -11 502 -379 609 -458 45 -33 132 -98
193 -145 62 -47 125 -94 140 -105 56 -41 538 -404 548 -412 6 -5 207 -157 449
-338 408 -306 439 -328 459 -315 20 12 360 264 382 283 21 17 541 409 572 430
18 12 83 61 145 108 62 47 160 121 218 164 142 107 509 383 540 406 30 24 525
396 563 424 15 11 81 61 147 110 65 50 202 152 302 227 208 155 378 283 393
295 6 4 27 21 48 36 l37 28 0 -2386 0 -2386 1068 3 c1197 4 1104 -2 1272 80
237 115 392 305 459 562 l21 80 0 3725 0 3726 -25 115 c-136 643 -722 1068
-1380 1001 -112 -11 -236 -41 -335 -81 -137 -54 -241 -124 -739 -497 -284
-213 -520 -391 -526 -396 -5 -4 -50 -38 -100 -75 -49 -38 -173 -131 -275 -207
-101 -77 -194 -147 -207 -155 -12 -8 -138 -103 -280 -210 -141 -107 -267 -202
-279 -210 -29 -20 -1138 -853 -1144 -860 -3 -3 -57 -44 -120 -91 -169 -126
-258 -193 -528 -396 -144 -108 -248 -180 -255 -176 -7 4 -57 41 -112 83 -54
41 -109 82 -121 90 -12 8 -237 177 -499 375 -263 198 -512 386 -554 417 -42
31 -81 60 -86 65 -9 7 -143 108 -335 251 -96 71 -215 161 -225 169 -21 17
-887 669 -908 683 -13 8 -70 51 -127 95 -57 44 -114 87 -127 95 -12 8 -86 64
-165 123 -79 60 -154 117 -168 127 -98 74 -227 170 -235 177 -41 35 -529 396
-563 417 -120 75 -221 118 -371 157 -93 24 -140 30 -260 33 -80 3 -177 1 -216
-4z"/>
</g>
</svg>
