<?xml version="1.0" standalone="no"?>
<!DOCTYPE svg PUBLIC "-//W3C//DTD SVG 20010904//EN"
 "http://www.w3.org/TR/2001/REC-SVG-20010904/DTD/svg10.dtd">
<svg version="1.0" xmlns="http://www.w3.org/2000/svg"
 width="1280.000000pt" height="1280.000000pt" viewBox="0 0 1280.000000 1280.000000"
 preserveAspectRatio="xMidYMid meet">
<metadata>
Created by potrace 1.16, written by Peter Selinger 2001-2019
</metadata>
<g transform="translate(0.000000,1280.000000) scale(0.100000,-0.100000)"
fill="#000000" stroke="none">
<path d="M5827 11714 c-3 -3 -83 -14 -179 -24 -95 -10 -195 -24 -223 -30 -27
-6 -70 -15 -95 -20 -140 -26 -347 -80 -370 -95 -8 -5 -35 -15 -60 -22 -68 -17
-163 -52 -174 -63 -6 -6 -16 -10 -24 -10 -17 0 -44 -12 -232 -105 -177 -87
-280 -142 -300 -160 -9 -8 -21 -15 -26 -16 -5 0 -36 -20 -69 -45 -33 -24 -73
-51 -90 -61 -16 -9 -73 -50 -125 -91 -268 -213 -513 -457 -691 -692 -35 -47
-72 -93 -81 -102 -10 -10 -18 -23 -18 -29 0 -6 -18 -34 -40 -61 -22 -28 -40
-55 -40 -59 0 -5 -15 -31 -32 -57 -127 -186 -305 -579 -377 -832 -12 -41 -27
-88 -33 -105 -5 -16 -16 -61 -24 -100 -8 -38 -18 -79 -23 -90 -5 -11 -12 -47
-15 -80 -3 -33 -12 -83 -20 -110 -32 -112 -50 -414 -56 -935 l-5 -505 -32 -55
c-17 -30 -39 -68 -47 -85 -38 -72 -203 -377 -232 -430 -23 -41 -86 -158 -111
-208 -12 -23 -14 -154 -10 -845 3 -523 9 -836 15 -871 6 -29 16 -95 22 -147 5
-51 17 -119 25 -151 8 -31 15 -72 15 -90 0 -18 8 -59 19 -90 10 -32 23 -80 28
-108 6 -27 15 -63 21 -80 6 -16 31 -93 56 -170 24 -77 52 -153 60 -170 9 -16
16 -38 16 -47 0 -10 10 -37 21 -60 31 -62 77 -165 108 -238 18 -44 138 -258
207 -370 83 -135 242 -358 308 -432 180 -203 337 -365 431 -446 39 -33 88 -77
110 -97 22 -21 51 -44 65 -53 14 -9 54 -39 90 -67 105 -82 172 -129 272 -188
34 -20 95 -57 133 -82 39 -25 81 -50 95 -56 14 -6 32 -15 40 -20 73 -42 399
-189 420 -189 6 0 21 -5 33 -12 108 -60 606 -196 797 -218 36 -5 101 -14 145
-22 63 -10 258 -13 900 -13 745 0 827 2 895 18 41 9 93 17 115 17 22 0 74 9
115 20 41 11 90 20 108 20 18 0 47 7 63 16 17 8 53 18 82 21 29 3 66 13 82 21
17 9 48 19 70 23 42 8 120 33 170 55 17 7 49 18 72 24 23 6 45 14 47 19 3 5
18 12 33 15 16 4 47 16 71 27 23 10 63 28 90 40 71 32 302 147 344 172 171
102 251 153 298 188 19 14 89 66 155 115 259 192 522 453 751 746 132 170 163
212 204 280 19 31 55 90 80 130 65 106 73 122 134 243 69 140 106 222 141 310
15 39 31 75 35 80 4 6 10 24 14 40 4 17 13 44 21 60 21 48 46 126 56 179 6 27
16 58 24 70 7 12 16 44 20 71 4 28 13 64 20 80 7 17 16 56 19 88 3 31 13 76
21 100 8 23 15 58 15 77 0 19 10 87 21 150 20 109 21 156 26 956 l5 841 -43
79 c-23 43 -64 122 -92 174 -27 52 -53 97 -57 100 -5 3 -12 19 -15 35 -4 17
-13 35 -19 40 -7 6 -19 24 -28 40 -57 112 -131 246 -139 251 -5 3 -9 12 -9 21
0 8 -8 27 -19 41 -18 26 -19 58 -23 597 -3 406 -8 578 -17 599 -6 15 -15 83
-21 150 -5 66 -16 143 -24 170 -9 27 -16 64 -16 81 0 18 -9 58 -20 91 -11 32
-20 69 -20 80 0 12 -7 41 -16 65 -8 24 -19 62 -24 84 -10 46 -36 123 -62 181
-10 22 -18 48 -18 58 0 10 -6 30 -14 44 -8 15 -27 56 -42 92 -28 67 -68 153
-84 180 -5 8 -23 44 -41 80 -34 70 -69 135 -104 190 -94 150 -152 237 -166
252 -9 9 -27 34 -39 55 -13 21 -28 43 -34 48 -6 6 -34 37 -61 70 -140 168
-185 218 -273 303 -106 102 -295 265 -376 324 -100 73 -310 212 -365 241 -31
16 -63 36 -72 43 -8 8 -22 14 -30 14 -8 0 -25 9 -39 20 -14 11 -31 20 -38 20
-7 0 -23 6 -35 14 -31 20 -322 146 -336 146 -6 0 -28 9 -48 20 -21 11 -47 20
-58 20 -11 0 -32 6 -47 14 -14 8 -46 17 -70 21 -24 4 -52 12 -63 18 -49 26
-343 83 -523 102 -78 8 -161 19 -185 25 -45 10 -1179 14 -1190 4z m1123 -1677
c36 -8 94 -18 129 -21 36 -4 76 -13 90 -20 14 -7 48 -16 75 -20 27 -3 60 -13
72 -21 13 -8 36 -15 51 -15 15 0 43 -9 61 -20 18 -11 40 -20 48 -20 9 0 27 -9
41 -20 14 -11 32 -20 39 -20 17 0 153 -73 227 -122 32 -21 62 -38 65 -38 4 0
23 -15 42 -33 19 -18 54 -45 77 -61 141 -95 405 -401 496 -573 75 -144 117
-229 117 -239 0 -7 7 -25 15 -41 34 -67 95 -265 95 -310 0 -17 7 -50 16 -74 9
-26 19 -107 24 -199 11 -179 13 -771 4 -883 l-7 -77 -2318 0 c-1843 0 -2319 3
-2326 13 -4 6 -9 203 -11 437 -2 327 0 454 12 550 17 145 42 284 56 310 6 10
10 30 10 45 0 14 9 43 20 65 11 22 20 47 20 56 0 10 9 38 21 63 18 42 38 85
68 151 89 197 316 497 476 630 36 30 85 71 108 91 39 32 164 117 247 166 69
41 200 103 285 134 33 12 76 28 95 35 19 8 59 19 88 24 29 5 61 14 71 20 11 5
52 12 93 16 40 3 87 10 103 16 59 20 226 26 630 23 304 -3 427 -8 475 -18z
m-366 -4322 c183 -40 261 -70 406 -158 95 -57 258 -206 286 -259 8 -16 19 -28
24 -28 12 0 71 -96 110 -180 17 -36 37 -78 45 -93 8 -16 15 -34 15 -42 0 -7
11 -47 25 -89 14 -42 25 -100 25 -129 0 -29 5 -68 10 -88 15 -52 -21 -290 -60
-403 -38 -108 -87 -207 -129 -260 -17 -21 -31 -44 -31 -51 0 -27 -250 -265
-278 -265 -5 0 -16 -7 -23 -16 -7 -9 -22 -20 -34 -26 -11 -5 -51 -26 -90 -48
l-70 -38 -5 -544 -5 -543 -29 -55 c-35 -65 -136 -166 -197 -196 -24 -12 -78
-30 -119 -39 -69 -15 -78 -15 -112 -1 -21 9 -47 16 -59 16 -44 0 -166 91 -208
155 -14 22 -38 65 -53 95 l-28 55 0 522 0 522 -37 30 c-21 17 -44 31 -53 31
-8 0 -26 9 -40 20 -14 11 -29 20 -34 20 -4 0 -30 18 -56 40 -26 22 -53 40 -59
40 -19 0 -184 172 -226 235 -52 77 -57 87 -96 165 -54 111 -69 146 -69 167 0
11 -7 38 -16 59 -36 87 -36 422 1 536 44 139 64 190 81 209 8 8 14 22 14 30 0
17 64 111 137 201 63 78 192 195 258 235 62 38 127 72 175 92 30 13 64 28 75
32 11 5 52 16 90 25 39 8 84 19 100 24 53 14 262 11 339 -5z"/>
</g>
</svg>
