<?xml version="1.0" standalone="no"?>
<!DOCTYPE svg PUBLIC "-//W3C//DTD SVG 20010904//EN"
 "http://www.w3.org/TR/2001/REC-SVG-20010904/DTD/svg10.dtd">
<svg version="1.0" xmlns="http://www.w3.org/2000/svg"
 width="1280.000000pt" height="1280.000000pt" viewBox="0 0 1280.000000 1280.000000"
 preserveAspectRatio="xMidYMid meet">
<metadata>
Created by potrace 1.16, written by Peter Selinger 2001-2019
</metadata>
<g transform="translate(0.000000,1280.000000) scale(0.100000,-0.100000)"
fill="#000000" stroke="none">
<path d="M4975 9279 c-190 -8 -687 -44 -810 -59 -506 -62 -843 -121 -1210
-209 -445 -107 -538 -145 -657 -265 -149 -150 -204 -393 -142 -621 49 -181
219 -348 404 -397 103 -27 266 -24 381 7 235 63 411 108 494 125 292 59 500
96 655 115 69 9 177 22 240 30 420 52 1254 80 1665 56 254 -15 609 -39 665
-46 315 -37 554 -67 592 -75 26 -5 107 -19 180 -30 73 -11 162 -27 198 -35 36
-8 110 -23 165 -34 330 -66 552 -124 900 -232 105 -33 213 -68 240 -79 28 -10
95 -35 150 -55 87 -32 382 -154 425 -175 8 -5 89 -45 180 -90 169 -83 211
-106 337 -178 123 -71 201 -92 345 -92 111 0 134 3 211 29 98 34 160 72 234
148 110 112 163 252 163 433 0 254 -108 428 -350 564 -351 196 -637 333 -940
450 -36 13 -107 41 -157 60 -51 20 -95 36 -99 36 -3 0 -33 11 -67 24 -125 49
-437 144 -757 230 -186 50 -559 133 -727 161 -51 9 -99 18 -105 20 -25 9 -407
67 -598 91 -374 47 -756 78 -1140 94 -239 10 -820 10 -1065 -1z"/>
<path d="M4870 7154 c-299 -15 -721 -64 -1065 -125 -442 -78 -894 -194 -1010
-260 -110 -62 -213 -202 -235 -318 -14 -77 -12 -206 5 -277 38 -164 187 -311
351 -350 82 -19 260 -14 339 10 331 101 780 196 1095 231 74 8 160 19 191 24
292 49 1330 49 1679 1 36 -5 148 -18 249 -30 101 -11 202 -25 225 -31 22 -5
106 -20 186 -33 355 -59 678 -140 1115 -279 363 -116 884 -345 1180 -521 33
-19 78 -45 100 -57 22 -12 47 -27 55 -34 8 -8 51 -26 95 -41 191 -65 406 -20
547 115 160 152 194 450 75 650 -35 58 -119 140 -176 172 -20 11 -61 35 -91
54 -277 169 -780 409 -1115 532 -38 14 -106 39 -150 55 -44 16 -115 40 -158
53 -42 13 -82 27 -87 30 -10 6 -78 27 -290 87 -493 140 -1046 246 -1560 298
-113 12 -245 26 -295 31 -88 9 -1108 20 -1255 13z"/>
<path d="M5000 5139 c-271 -12 -807 -64 -920 -88 -25 -6 -112 -20 -195 -31
-82 -12 -152 -23 -155 -25 -4 -2 -71 -15 -151 -29 -201 -35 -453 -90 -521
-114 -96 -34 -176 -111 -226 -220 -23 -51 -26 -69 -26 -172 1 -109 2 -118 33
-181 84 -173 280 -270 466 -231 28 6 115 25 195 42 468 100 757 143 1350 200
319 30 820 35 1095 9 55 -5 156 -14 225 -20 200 -17 506 -62 680 -99 158 -34
390 -91 475 -117 180 -55 303 -95 350 -113 28 -11 93 -36 145 -56 229 -87 461
-196 690 -326 80 -45 181 -100 224 -122 l79 -41 116 0 c111 0 119 2 189 34 83
39 151 105 192 187 21 42 25 65 28 170 8 258 -39 315 -435 533 -340 186 -633
314 -1063 463 -166 57 -459 137 -730 197 -84 19 -141 30 -380 71 -72 12 -367
48 -495 60 -299 28 -845 36 -1235 19z"/>
</g>
</svg>
