<?xml version="1.0" standalone="no"?>
<!DOCTYPE svg PUBLIC "-//W3C//DTD SVG 20010904//EN"
 "http://www.w3.org/TR/2001/REC-SVG-20010904/DTD/svg10.dtd">
<svg version="1.0" xmlns="http://www.w3.org/2000/svg"
 width="1280.000000pt" height="1280.000000pt" viewBox="0 0 1280.000000 1280.000000"
 preserveAspectRatio="xMidYMid meet">
<metadata>
Created by potrace 1.16, written by Peter Selinger 2001-2019
</metadata>
<g transform="translate(0.000000,1280.000000) scale(0.100000,-0.100000)"
fill="#000000" stroke="none">
<path d="M9295 10909 c-162 -21 -406 -81 -550 -133 -148 -54 -424 -194 -555
-281 -781 -520 -1263 -1386 -1307 -2350 l-6 -144 -867 -1263 -867 -1263 -134
-7 c-168 -8 -275 -22 -409 -55 -243 -59 -516 -190 -723 -347 l-32 -24 -175 77
c-184 82 -1374 613 -2005 894 -203 91 -640 285 -970 432 -330 147 -617 276
-637 286 -21 11 -42 19 -48 19 -7 0 -10 -417 -10 -1334 l0 -1333 373 -163
c204 -89 788 -339 1297 -556 509 -217 1031 -440 1160 -495 l235 -100 32 -121
c175 -649 646 -1193 1243 -1433 514 -206 1088 -185 1585 59 504 247 893 700
1079 1257 70 210 116 469 116 653 l0 75 103 79 c56 43 140 108 187 143 124 95
1210 916 1681 1271 l405 305 215 6 c307 8 496 40 759 127 416 137 761 351
1080 670 427 426 710 971 820 1575 35 192 45 318 45 560 0 243 -10 368 -46
563 -212 1167 -1084 2094 -2184 2321 -267 55 -618 67 -890 30z m729 -969 c402
-86 755 -296 1013 -603 456 -544 591 -1297 352 -1973 -341 -966 -1362 -1482
-2269 -1147 -669 247 -1133 857 -1221 1607 -17 146 -7 443 20 581 158 797 717
1388 1451 1534 148 29 153 30 365 26 145 -3 213 -9 289 -25z m-4667 -5101
c683 -132 1196 -742 1253 -1492 45 -593 -235 -1192 -704 -1505 -263 -176 -516
-256 -816 -256 -180 0 -292 17 -448 69 -376 126 -683 388 -877 748 l-48 88 34
-14 c93 -39 771 -328 814 -347 90 -39 213 -69 327 -81 593 -59 1135 344 1264
941 23 104 26 381 6 475 -54 250 -162 448 -336 617 -144 140 -166 152 -878
469 -240 106 -431 197 -425 200 66 37 317 99 452 113 79 8 280 -5 382 -25z"/>
<path d="M9570 9530 c-97 -10 -224 -41 -329 -79 -424 -155 -778 -565 -887
-1029 -126 -539 23 -1090 396 -1462 203 -202 413 -320 680 -381 136 -32 357
-36 505 -11 372 64 676 260 907 584 322 449 366 1097 110 1604 -90 179 -289
411 -450 526 -156 112 -344 194 -532 232 -93 19 -300 27 -400 16z"/>
</g>
</svg>
