<?xml version="1.0" standalone="no"?>
<!DOCTYPE svg PUBLIC "-//W3C//DTD SVG 20010904//EN"
 "http://www.w3.org/TR/2001/REC-SVG-20010904/DTD/svg10.dtd">
<svg version="1.0" xmlns="http://www.w3.org/2000/svg"
 width="200.000000pt" height="200.000000pt" viewBox="0 0 200.000000 200.000000"
 preserveAspectRatio="xMidYMid meet">
<metadata>
Created by potrace 1.16, written by Peter Selinger 2001-2019
</metadata>
<g transform="translate(0.000000,200.000000) scale(0.100000,-0.100000)"
fill="#000000" stroke="none">
<path d="M956 1640 c-174 -20 -367 -73 -475 -130 -162 -87 -279 -226 -338
-405 -24 -72 -27 -95 -27 -235 -1 -136 2 -164 22 -230 66 -210 163 -311 271
-282 54 14 1390 530 1421 549 62 37 74 104 39 219 -34 111 -83 190 -178 285
-74 73 -101 93 -192 137 -58 29 -140 61 -181 71 -91 24 -255 33 -362 21z m382
-91 c26 -6 89 -31 141 -56 79 -38 108 -59 175 -127 49 -48 94 -105 113 -141
30 -57 73 -182 73 -211 0 -37 -58 -72 -220 -134 -195 -74 -200 -75 -182 -62
19 13 11 47 -12 47 -10 0 -24 -8 -30 -17 -8 -14 -7 -20 7 -31 16 -11 -37 -34
-420 -181 -241 -93 -444 -171 -451 -174 -9 -3 -7 9 8 37 38 76 60 188 71 361
5 91 16 200 23 242 44 242 233 424 481 462 43 6 167 -2 223 -15z m-824 -116
c-9 -40 -42 -72 -86 -83 -47 -13 -62 -40 -55 -99 6 -47 6 -47 -38 -70 -57 -30
-70 -65 -49 -127 21 -63 15 -84 -33 -117 -49 -32 -61 -63 -46 -118 9 -33 7
-41 -13 -66 l-22 -28 -7 78 c-11 116 14 260 66 370 12 27 13 28 21 8 12 -32
35 -25 68 21 34 47 35 71 4 76 -16 2 -28 -7 -44 -32 -12 -20 -24 -36 -27 -36
-8 0 25 49 70 103 37 45 168 147 189 147 5 0 5 -12 2 -27z m64 -145 c13 -16
13 -18 -4 -23 -87 -27 -134 -81 -134 -155 0 -26 -6 -52 -13 -58 -9 -8 -11 -1
-9 34 3 32 0 45 -11 50 -12 4 -10 10 10 30 25 25 26 35 7 101 -5 19 0 23 35
34 22 6 50 23 63 36 l23 24 9 -28 c5 -15 15 -36 24 -45z m-18 -365 c-3 -71 -9
-134 -13 -140 -14 -22 -43 -14 -75 18 -38 39 -55 102 -41 151 12 45 70 98 107
98 l27 0 -5 -127z m-139 -154 c19 -28 20 -29 2 -36 -74 -26 -85 -33 -80 -53 7
-27 3 -26 -49 14 l-45 34 62 67 62 66 13 -31 c8 -17 23 -45 35 -61z"/>
</g>
</svg>
