<?xml version="1.0" standalone="no"?>
<!DOCTYPE svg PUBLIC "-//W3C//DTD SVG 20010904//EN"
 "http://www.w3.org/TR/2001/REC-SVG-20010904/DTD/svg10.dtd">
<svg version="1.0" xmlns="http://www.w3.org/2000/svg"
 width="1280.000000pt" height="1280.000000pt" viewBox="0 0 1280.000000 1280.000000"
 preserveAspectRatio="xMidYMid meet">
<metadata>
Created by potrace 1.16, written by Peter Selinger 2001-2019
</metadata>
<g transform="translate(0.000000,1280.000000) scale(0.100000,-0.100000)"
fill="#000000" stroke="none">
<path d="M1939 11799 c-6 -12 -22 -51 -34 -88 -13 -36 -43 -115 -65 -176 -23
-60 -57 -150 -75 -200 -18 -49 -57 -151 -85 -225 -28 -74 -62 -164 -75 -200
-13 -36 -44 -121 -70 -190 -26 -69 -60 -159 -75 -200 -37 -98 -112 -299 -162
-430 -22 -58 -49 -131 -59 -163 -19 -57 -19 -155 -19 -3901 0 -3058 3 -3846
12 -3859 12 -16 105 -17 1323 -20 l1310 -2 3 -709 c1 -504 5 -713 13 -723 9
-11 140 -13 725 -13 481 0 721 3 736 11 13 5 334 323 713 706 380 383 703 705
720 715 29 17 80 18 1105 18 l1075 0 1443 1443 c1137 1136 1445 1449 1453
1477 6 23 9 1138 7 3390 l-3 3355 -4952 3 -4952 2 -12 -21z m8916 -3617 l0
-2642 -835 -835 -835 -835 -1303 0 c-1148 0 -1307 -2 -1340 -15 -26 -11 -247
-225 -734 -713 l-698 -697 0 696 c0 664 -1 697 -18 713 -17 15 -101 16 -1058
16 -571 0 -1051 0 -1066 0 l-28 0 0 3473 c0 1911 3 3477 7 3480 3 4 1784 6
3957 5 l3951 -3 0 -2643z"/>
<path d="M5572 8918 c-17 -17 -17 -2879 0 -2896 17 -17 949 -17 966 0 17 17
17 2879 0 2896 -17 17 -949 17 -966 0z"/>
<path d="M8222 8918 c-17 -17 -17 -2879 0 -2896 17 -17 949 -17 966 0 17 17
17 2879 0 2896 -17 17 -949 17 -966 0z"/>
</g>
</svg>
