<?xml version="1.0" standalone="no"?>
<!DOCTYPE svg PUBLIC "-//W3C//DTD SVG 20010904//EN"
 "http://www.w3.org/TR/2001/REC-SVG-20010904/DTD/svg10.dtd">
<svg version="1.0" xmlns="http://www.w3.org/2000/svg"
 width="1280.000000pt" height="1280.000000pt" viewBox="0 0 1280.000000 1280.000000"
 preserveAspectRatio="xMidYMid meet">
<metadata>
Created by potrace 1.16, written by Peter Selinger 2001-2019
</metadata>
<g transform="translate(0.000000,1280.000000) scale(0.100000,-0.100000)"
fill="#000000" stroke="none">
<path d="M4140 10200 c-129 -4 -287 -12 -350 -18 -63 -6 -283 -13 -488 -17
-221 -3 -384 -10 -400 -16 -15 -6 -146 -15 -292 -20 -171 -6 -283 -15 -315
-24 -27 -8 -106 -17 -175 -21 -74 -4 -133 -12 -145 -20 -11 -7 -56 -16 -100
-20 -44 -3 -87 -13 -96 -20 -8 -8 -38 -17 -65 -20 -27 -4 -56 -13 -65 -20 -8
-8 -31 -17 -50 -20 -19 -4 -45 -15 -58 -26 -13 -10 -32 -18 -42 -18 -10 0 -23
-9 -29 -20 -6 -11 -16 -20 -22 -20 -15 0 -148 -132 -148 -147 0 -7 -5 -13 -11
-13 -5 0 -17 -15 -25 -32 -8 -18 -30 -60 -49 -93 -18 -33 -34 -69 -34 -79 -1
-11 -8 -27 -17 -37 -9 -10 -18 -37 -21 -61 -3 -24 -12 -51 -20 -60 -8 -9 -18
-43 -22 -75 -4 -32 -15 -70 -24 -83 -12 -17 -17 -44 -17 -88 0 -43 -6 -75 -20
-102 -15 -30 -20 -59 -20 -125 0 -57 -6 -104 -19 -142 -15 -46 -21 -96 -24
-233 -3 -121 -9 -189 -20 -220 -12 -35 -17 -111 -21 -345 -3 -200 -10 -332
-20 -395 -23 -140 -23 -2548 0 -2685 9 -58 16 -197 20 -395 4 -244 9 -313 21
-345 12 -29 17 -88 20 -215 4 -138 9 -187 24 -233 13 -38 19 -86 19 -145 1
-65 6 -97 20 -127 12 -25 19 -62 20 -100 0 -43 6 -69 20 -90 11 -17 20 -47 20
-69 0 -21 9 -57 19 -80 11 -23 22 -57 26 -77 3 -21 12 -42 20 -49 8 -7 15 -22
15 -34 0 -11 6 -31 13 -43 6 -13 27 -51 46 -85 43 -81 121 -177 173 -214 22
-16 47 -37 56 -46 9 -10 24 -18 33 -18 9 0 27 -8 40 -19 13 -10 40 -22 59 -26
19 -4 42 -13 51 -21 8 -8 38 -17 65 -20 27 -4 56 -13 65 -20 8 -8 55 -18 102
-23 48 -5 94 -14 102 -21 9 -8 70 -15 159 -20 84 -5 154 -14 167 -21 17 -9
103 -15 289 -20 147 -5 283 -13 305 -19 26 -8 208 -15 505 -20 279 -5 487 -13
520 -20 139 -29 4882 -29 5020 0 34 7 239 15 525 19 318 6 481 12 505 20 21 8
142 15 305 20 188 5 277 11 294 20 13 7 84 16 167 21 89 5 150 12 159 20 8 7
51 16 94 21 44 4 90 14 103 22 13 8 45 17 72 21 27 3 57 12 65 20 9 8 33 18
54 21 21 4 41 13 44 21 2 7 19 16 36 20 18 3 39 13 47 20 31 29 76 61 93 67 9
3 17 13 17 22 0 8 4 15 10 15 8 0 36 36 75 99 6 9 15 19 22 24 6 4 14 21 18
38 4 17 16 40 26 50 10 10 19 29 19 42 0 12 9 36 20 52 11 17 20 41 20 55 0
14 9 39 20 55 11 17 20 47 20 70 0 23 9 53 20 70 14 21 20 47 20 89 0 38 7 75
19 100 14 29 20 70 23 137 3 65 9 104 19 120 12 19 17 64 21 199 4 122 10 187
21 215 12 31 17 103 21 315 4 210 9 289 22 335 14 54 16 198 16 1525 0 1327
-2 1471 -16 1525 -13 46 -18 124 -22 335 -4 214 -9 284 -21 315 -11 28 -17 92
-21 215 -4 133 -9 181 -20 198 -10 15 -17 58 -20 125 -3 73 -10 112 -23 137
-13 23 -19 55 -19 95 0 43 -6 68 -20 90 -11 17 -20 47 -20 70 0 23 -9 53 -20
70 -11 17 -20 41 -20 55 0 14 -9 39 -20 55 -11 17 -20 40 -20 53 0 12 -9 31
-19 41 -10 10 -22 33 -26 51 -4 17 -13 34 -21 37 -8 3 -14 10 -14 15 0 25
-152 188 -175 188 -7 0 -20 9 -30 20 -10 11 -26 20 -36 20 -10 0 -26 8 -36 19
-10 10 -33 21 -52 25 -19 3 -42 12 -50 20 -9 7 -38 16 -65 20 -27 3 -59 12
-70 20 -12 7 -55 16 -96 20 -41 4 -86 14 -100 21 -14 8 -87 18 -171 23 -80 5
-154 15 -165 21 -11 6 -136 14 -294 20 -151 5 -288 14 -305 20 -17 6 -228 15
-505 21 -263 5 -497 15 -525 21 -57 13 -4404 21 -4805 9z m1025 -2290 c3 -6
14 -10 24 -10 10 0 30 -9 44 -20 14 -11 32 -20 40 -20 7 0 22 -9 32 -20 10
-11 26 -20 35 -20 10 0 29 -9 43 -20 14 -11 32 -20 40 -20 8 0 25 -8 38 -19
13 -10 34 -21 46 -25 11 -4 27 -13 33 -21 7 -8 20 -15 30 -15 9 0 28 -9 42
-19 13 -11 36 -23 51 -26 14 -4 28 -13 30 -20 3 -7 21 -15 40 -19 19 -4 37
-13 40 -20 3 -8 20 -17 37 -21 18 -4 41 -16 51 -26 10 -10 27 -19 37 -19 11 0
27 -9 37 -20 10 -11 28 -20 40 -20 12 0 30 -9 40 -20 10 -11 28 -20 40 -20 12
0 30 -9 40 -20 10 -11 26 -20 35 -20 10 0 29 -9 43 -20 14 -11 32 -20 40 -20
8 0 26 -9 40 -20 14 -11 32 -20 40 -20 7 0 22 -9 32 -20 10 -11 26 -20 35 -20
9 0 25 -9 35 -20 10 -11 28 -20 40 -20 12 0 30 -9 40 -20 10 -11 26 -20 37
-20 10 0 26 -9 35 -20 10 -11 28 -20 40 -20 13 0 31 -9 40 -20 10 -11 28 -20
40 -20 12 0 30 -8 40 -19 10 -10 32 -22 50 -25 17 -4 34 -14 37 -22 3 -8 14
-14 24 -14 11 0 30 -8 43 -19 13 -10 35 -22 49 -26 14 -4 36 -16 49 -26 13
-11 31 -19 41 -19 9 0 25 -9 35 -20 10 -11 25 -20 32 -20 8 0 26 -9 40 -20 14
-11 32 -20 40 -20 8 0 26 -9 40 -20 14 -11 34 -20 44 -20 10 0 21 -5 25 -11 3
-6 25 -19 49 -29 24 -10 46 -23 49 -29 4 -6 14 -11 23 -11 8 0 26 -9 40 -20
14 -11 33 -20 43 -20 9 0 25 -9 35 -20 10 -11 28 -20 41 -20 13 0 28 -9 34
-20 6 -11 21 -20 34 -20 13 0 31 -9 41 -20 10 -11 28 -20 40 -20 12 0 30 -9
40 -20 10 -11 26 -20 35 -20 10 0 29 -9 43 -20 14 -11 32 -20 41 -20 9 0 24
-9 33 -20 10 -11 28 -20 40 -20 12 0 30 -8 40 -19 10 -10 32 -22 50 -25 17 -4
34 -13 36 -21 3 -7 19 -16 36 -20 16 -3 35 -12 41 -20 6 -8 25 -17 41 -20 16
-4 31 -10 34 -15 3 -5 36 -24 73 -42 37 -17 78 -40 91 -50 13 -10 32 -18 42
-18 34 0 18 -33 -21 -45 -14 -4 -36 -16 -49 -26 -13 -11 -33 -19 -45 -19 -12
0 -29 -9 -39 -20 -9 -11 -25 -20 -35 -20 -11 0 -27 -9 -37 -20 -10 -11 -28
-20 -39 -20 -12 0 -29 -9 -39 -20 -9 -11 -24 -20 -33 -20 -9 0 -27 -9 -41 -20
-14 -11 -33 -20 -43 -20 -9 0 -25 -9 -35 -20 -10 -11 -25 -20 -32 -20 -8 0
-26 -9 -40 -20 -14 -11 -32 -20 -40 -20 -8 0 -26 -9 -40 -20 -14 -11 -33 -20
-42 -20 -9 0 -24 -9 -34 -20 -9 -11 -25 -20 -35 -20 -11 0 -27 -9 -37 -20 -10
-11 -28 -20 -40 -20 -12 0 -30 -9 -40 -20 -10 -11 -26 -20 -35 -20 -10 0 -28
-9 -42 -19 -13 -11 -37 -23 -52 -27 -15 -3 -30 -12 -33 -19 -2 -7 -20 -16 -39
-20 -19 -3 -37 -12 -40 -20 -3 -8 -22 -17 -41 -21 -19 -4 -37 -12 -40 -19 -2
-7 -16 -16 -30 -20 -15 -3 -38 -15 -51 -26 -14 -10 -33 -19 -42 -19 -10 0 -23
-7 -30 -15 -6 -8 -22 -17 -33 -21 -12 -4 -33 -15 -46 -25 -13 -11 -30 -19 -38
-19 -8 0 -26 -9 -40 -20 -14 -11 -32 -20 -40 -20 -8 0 -26 -9 -40 -20 -14 -11
-33 -20 -42 -20 -9 0 -24 -9 -34 -20 -9 -11 -24 -20 -33 -20 -9 0 -27 -9 -41
-20 -14 -11 -33 -20 -43 -20 -9 0 -25 -9 -35 -20 -10 -11 -28 -20 -40 -20 -12
0 -30 -9 -40 -20 -10 -11 -29 -20 -41 -20 -13 0 -29 -9 -36 -20 -7 -11 -23
-20 -35 -20 -13 0 -32 -9 -43 -20 -11 -11 -26 -20 -34 -20 -7 0 -24 -9 -38
-19 -13 -11 -36 -23 -51 -26 -14 -4 -31 -13 -38 -21 -6 -8 -15 -14 -20 -14
-12 0 -49 -18 -94 -44 -22 -13 -72 -40 -112 -60 -40 -20 -74 -40 -77 -45 -3
-5 -18 -12 -33 -16 -14 -3 -38 -15 -51 -26 -14 -10 -31 -19 -39 -19 -8 0 -26
-9 -40 -20 -14 -11 -34 -20 -45 -20 -10 0 -21 -6 -24 -14 -3 -8 -20 -18 -37
-22 -18 -3 -40 -15 -50 -25 -10 -11 -29 -19 -42 -19 -14 0 -29 -8 -35 -20 -7
-13 -21 -20 -40 -20 -19 0 -33 -7 -40 -20 -6 -11 -21 -20 -34 -20 -13 0 -31
-9 -41 -20 -10 -11 -26 -20 -37 -20 -10 0 -27 -9 -38 -20 -11 -11 -26 -20 -34
-20 -7 0 -25 -9 -39 -20 -14 -11 -32 -20 -40 -20 -8 0 -26 -9 -39 -20 l-25
-19 -7 37 c-8 49 -8 3350 0 3390 5 27 9 30 25 22 10 -6 21 -15 24 -20z"/>
</g>
</svg>
